<svg width="27" height="20" viewBox="0 0 27 20" fill="none" xmlns="http://www.w3.org/2000/svg">
<g clip-path="url(#clip0_24_14)">
<path d="M24.975 0H2.025C0.906623 0 0 1.03319 0 2.30769C0 3.5822 0.906623 4.61538 2.025 4.61538H24.975C26.0934 4.61538 27 3.5822 27 2.30769C27 1.03319 26.0934 0 24.975 0Z" fill="black"/>
<path d="M16.875 7.69232H2.025C0.906623 7.69232 0 8.72551 0 10C0 11.2745 0.906623 12.3077 2.025 12.3077H16.875C17.9934 12.3077 18.9 11.2745 18.9 10C18.9 8.72551 17.9934 7.69232 16.875 7.69232Z" fill="black"/>
<path d="M8.775 15.3846H2.025C0.906623 15.3846 0 16.4178 0 17.6923C0 18.9668 0.906623 20 2.025 20H8.775C9.89338 20 10.8 18.9668 10.8 17.6923C10.8 16.4178 9.89338 15.3846 8.775 15.3846Z" fill="black"/>
</g>
<defs>
<clipPath id="clip0_24_14">
<rect width="27" height="20" fill="white"/>
</clipPath>
</defs>
</svg>
