<?xml version="1.0" standalone="no"?>
<!DOCTYPE svg PUBLIC "-//W3C//DTD SVG 20010904//EN"
 "http://www.w3.org/TR/2001/REC-SVG-20010904/DTD/svg10.dtd">
<svg version="1.0" xmlns="http://www.w3.org/2000/svg"
 width="900.000000pt" height="520.000000pt" viewBox="0 0 900.000000 520.000000"
 preserveAspectRatio="xMidYMid meet">

<g transform="translate(0.000000,520.000000) scale(0.100000,-0.100000)"
fill="#000000" stroke="none">
<path d="M4139 5160 c-23 -12 -242 -248 -600 -647 -310 -345 -715 -795 -899
-1000 -185 -205 -351 -397 -369 -427 -50 -83 -89 -187 -112 -300 -18 -88 -20
-124 -16 -286 6 -214 24 -297 89 -422 l40 -77 -21 -29 c-92 -129 -132 -368
-97 -570 40 -227 167 -425 333 -514 43 -24 650 -221 2163 -703 162 -52 311
-97 331 -100 47 -9 111 9 149 42 17 14 144 163 283 332 978 1191 1391 1695
1412 1726 43 65 43 110 -3 248 -83 250 -82 476 4 734 39 117 42 157 15 234
-17 47 -19 66 -11 120 5 35 14 80 20 99 53 182 -141 330 -294 223 -51 -36 -69
-68 -96 -168 -17 -61 -23 -111 -24 -210 l-1 -130 -745 -922 c-596 -739 -749
-922 -765 -919 -11 2 -531 160 -1155 351 -1279 391 -1181 353 -1217 472 -22
75 -25 272 -4 323 19 47 68 97 107 110 79 27 97 22 1163 -300 1110 -335 1087
-330 1154 -285 26 17 1802 2106 1857 2184 57 81 28 201 -60 248 -51 27 -2492
583 -2557 583 -21 -1 -54 -9 -74 -20z m719 -813 c428 -104 642 -161 660 -174
44 -33 40 -62 -19 -134 -118 -145 -152 -169 -239 -169 -27 0 -317 66 -682 155
-691 168 -665 161 -690 183 -35 30 -22 65 62 165 97 115 140 140 230 132 25
-2 330 -73 678 -158z m1525 -1774 c4 -32 16 -94 28 -138 12 -44 22 -87 23 -96
1 -17 -1492 -1842 -1502 -1835 -4 2 -439 142 -967 311 -1258 401 -1271 406
-1304 426 -36 22 -88 101 -106 164 -23 76 -30 184 -15 246 15 63 45 128 64
135 7 3 106 -24 222 -60 293 -90 862 -265 1519 -466 308 -94 573 -175 589
-181 16 -5 49 -9 74 -9 100 0 79 -23 744 800 337 417 616 759 619 759 3 1 9
-25 12 -56z"/>
</g>
</svg>
